PathFileType	4	(X/Y/Z)	Walk6.trc
DataRate	CameraRate	NumFrames	NumMarkers	Units	OrigDataRate	OrigDataStartFrame	OrigNumFrames
200.000000	200.000000	4	59	mm	200.000000	256	600
Frame#	Times		LFHD		RFHD		CLAV		STRN		LASI		RASI		RACR1		RUA1		RElbow		RFA1		RWRR		RWRU		RCAR		LACR1		LUA1		LElbow		LFA1		LWRR		RTH2		RTB1		RTB2		LTH1		LTH3		LTH2		LTH4		LMFC		LTB1		LTB2		LTB4		LMT1		LLFC		LCAR		LTB3		LWRU		RTB4		RTB3		RTH3		RMFC		RMMAL		RTH4		RLFC		RMT1		RToe		RTH1		LBHD		RElbowM		RCAL		LMT5		LToe		RBack		RPSI		C7		T10		LPSI		LMMAL		LLMAL		LCAL		LElbowM		RBHD
			X1	Y1	Z1	X2	Y2	Z2	X3	Y3	Z3	X4	Y4	Z4	X5	Y5	Z5	X6	Y6	Z6	X7	Y7	Z7	X8	Y8	Z8	X9	Y9	Z9	X10	Y10	Z10	X11	Y11	Z11	X12	Y12	Z12	X13	Y13	Z13	X14	Y14	Z14	X15	Y15	Z15	X16	Y16	Z16	X17	Y17	Z17	X18	Y18	Z18	X19	Y19	Z19	X20	Y20	Z20	X21	Y21	Z21	X22	Y22	Z22	X23	Y23	Z23	X24	Y24	Z24	X25	Y25	Z25	X26	Y26	Z26	X27	Y27	Z27	X28	Y28	Z28	X29	Y29	Z29	X30	Y30	Z30	X31	Y31	Z31	X32	Y32	Z32	X33	Y33	Z33	X34	Y34	Z34	X35	Y35	Z35	X36	Y36	Z36	X37	Y37	Z37	X38	Y38	Z38	X39	Y39	Z39	X40	Y40	Z40	X41	Y41	Z41	X42	Y42	Z42	X43	Y43	Z43	X44	Y44	Z44	X45	Y45	Z45	X46	Y46	Z46	X47	Y47	Z47	X48	Y48	Z48	X49	Y49	Z49	X50	Y50	Z50	X51	Y51	Z51	X52	Y52	Z52	X53	Y53	Z53	X54	Y54	Z54	X55	Y55	Z55	X56	Y56	Z56	X57	Y57	Z57	X58	Y58	Z58	X59	Y59	Z59

256	1.28	-576.86	1633.1	10.129	-574.98	1642	109.77	-560.77	1377.8	86.153	-490.22	1221.3	90.988	-589.02	949.8	-87.652	-624.05	966.29	282.98	-688.37	1459.9	249.4	-681.82	1295.8	373.7	-629.32	1163.6	437.7	-532.57	1047.8	443.84	-458.33	960.44	367.33	-464.98	956.09	448.87	-394.24	904.28	413.07	-668.3	1447.9	-98.521	-741.65	1291.1	-186.53	-800.74	1136.5	-232.05	-815.18	995.7	-242.53	-793.97	863.64	-182.67	-720.33	666.4	268.79	-825.46	345.44	169.16	-889.9	275.13	214.27	-587.05	741.42	-115.76	-511.89	589.61	-87.175	-500.24	694.05	-83.463	-550.71	666.08	-102.38	-467.62	511.93	70.92	-385.35	426.64	-33.548	-387.68	327.57	-67.076	-355.18	349.27	-18.776	-185.43	120.07	-3.2276	-498.53	507.71	-83.786	-814.83	773.26	-207.05	-330.85	266.42	-4.442	-846.5	857.1	-235.56	-869.93	271.58	156.58	-914.03	198.72	143.4	-791.84	589.85	264.01	-832.21	489.24	92.598	-1009.3	98.323	76.374	-777.64	673.16	278.88	-838.43	479.03	246.77	-900.33	25.317	112.44	-850.7	25.163	148.3	-764.48	757.63	294.2	-720.59	1543.2	9.0737	-654.18	1073.6	341.69	-1112.2	85.671	112.77	-233.99	70.068	-65.092	-152.53	143.11	-47.352	-822.37	1330.3	188.84	-863.31	1011.3	96.651	-757.32	1453.9	77.237	-814.87	1137.4	65.697	-841.64	1002.3	17.862	-317.1	108	81.534	-348.62	83.552	2.4601	-370.15	37.301	65.508	-869.9	1099.8	-133.92	-704.29	1561.1	154.43
257	1.285	-570.03	1631.9	8.5045	-568.26	1641	108.15	-553.65	1376.8	84.932	-483.02	1220.4	90.245	-581.21	948.55	-87.802	-617.07	965.49	282.33	-681.51	1459.2	247.94	-674.73	1295.4	372.57	-622.15	1163.3	436.69	-525.27	1047.7	442.79	-451.01	960.45	366.21	-457.52	956.1	447.77	-386.73	904.49	411.86	-661.18	1446.4	-99.882	-734.59	1289.6	-187.62	-793.86	1134.9	-232.91	-808.6	994.16	-243.14	-787.78	862.2	-182.93	-714.93	665.45	268.78	-822.06	344.78	169.19	-887.26	275.16	214.3	-578.55	740.95	-115.7	-503.67	589.07	-87.019	-491.85	693.47	-83.282	-542.37	665.56	-102.15	-460.39	510.96	70.948	-378.07	425.05	-32.638	-381.14	326.01	-66.261	-348.84	347.38	-17.665	-182.01	115.72	-0.83167	-490.38	507.14	-83.829	-809.06	771.76	-206.95	-325.6	264.24	-3.1267	-840.26	855.65	-235.93	-867.26	271.39	156.64	-912.13	198.98	143.47	-786.79	589.22	263.85	-827.15	488.65	92.516	-1008.4	99.55	76.514	-772.2	672.49	278.7	-834	478.69	246.7	-900.3	25.336	112.5	-850.65	25.139	148.32	-758.67	756.9	294.01	-713.64	1541.9	7.4721	-647.45	1073.1	341.03	-1111.4	87.988	112.89	-230.91	66.785	-63.217	-148.46	138.49	-44.406	-815.43	1329.4	187.59	-856.1	1010.1	95.956	-750.39	1452.7	75.748	-807.63	1136.2	65.065	-834.25	1001	17.339	-314.46	105.53	82.796	-345.63	81.709	3.3108	-368.48	36.015	66.144	-863.31	1098.6	-134.86	-697.49	1560	152.76
258	1.29	-563.18	1630.9	6.8397	-561.51	1640.1	106.5	-546.49	1375.9	83.67	-475.77	1219.6	89.458	-573.4	947.4	-87.936	-609.99	964.71	281.63	-674.59	1458.6	246.45	-667.62	1295.1	371.42	-615	1163.1	435.64	-518.05	1047.7	441.72	-443.79	960.44	365.09	-450.18	956.09	446.67	-379.36	904.63	410.64	-654.04	1444.9	-101.28	-727.5	1288	-188.73	-786.91	1133.4	-233.8	-801.91	992.59	-243.77	-781.46	860.74	-183.22	-709.41	664.53	268.75	-818.53	344.14	169.24	-884.5	275.26	214.34	-570.06	740.56	-115.65	-495.52	588.59	-86.914	-483.48	692.96	-83.132	-534.08	665.12	-101.95	-453.37	509.98	70.913	-370.87	423.54	-31.816	-374.7	324.54	-65.548	-342.6	345.57	-16.652	-178.73	111.22	1.3965	-482.31	506.66	-83.938	-803.12	770.25	-206.92	-320.46	262.15	-1.9327	-833.88	854.18	-236.34	-864.49	271.24	156.71	-910.14	199.3	143.56	-781.59	588.62	263.69	-821.91	488.06	92.44	-1007.4	100.88	76.678	-766.64	671.84	278.51	-829.43	478.36	246.65	-900.26	25.35	112.54	-850.61	25.114	148.34	-752.75	756.21	293.81	-706.65	1540.7	5.8311	-640.87	1072.6	340.39	-1110.5	90.48	113.03	-228.07	63.423	-61.469	-144.54	133.66	-41.606	-808.45	1328.5	186.34	-848.83	1009	95.274	-743.43	1451.5	74.227	-800.35	1135	64.483	-826.84	999.76	16.832	-311.95	103.17	83.932	-342.82	79.999	4.0461	-367.01	34.959	66.692	-856.65	1097.4	-135.82	-690.67	1559	151.06
259	1.295	-556.29	1629.9	5.1377	-554.74	1639.3	104.81	-539.28	1375	82.37	-468.47	1218.8	88.63	-565.58	946.35	-88.049	-602.79	963.94	280.88	-667.62	1458.1	244.95	-660.49	1294.9	370.25	-607.89	1162.9	434.57	-510.91	1047.6	440.64	-436.68	960.4	363.95	-442.96	956.06	445.56	-372.14	904.72	409.42	-646.89	1443.4	-102.72	-720.38	1286.4	-189.85	-779.89	1131.8	-234.7	-795.11	991	-244.42	-775.01	859.26	-183.56	-703.74	663.66	268.71	-814.84	343.53	169.31	-881.61	275.41	214.39	-561.62	740.3	-115.61	-487.42	588.22	-86.876	-475.17	692.54	-83.019	-525.83	664.79	-101.79	-446.54	509.04	70.803	-363.74	422.14	-31.112	-368.34	323.18	-64.957	-336.43	343.87	-15.762	-175.55	106.63	3.409	-474.32	506.29	-84.126	-797.01	768.72	-206.95	-315.39	260.17	-0.8862	-827.37	852.69	-236.78	-861.58	271.15	156.8	-908.03	199.7	143.66	-776.24	588.04	263.52	-816.49	487.48	92.373	-1006.3	102.33	76.872	-760.94	671.23	278.3	-824.68	478.06	246.61	-900.22	25.358	112.58	-850.57	25.09	148.35	-746.72	755.54	293.59	-699.63	1539.5	4.1535	-634.45	1072.2	339.78	-1109.6	93.156	113.2	-225.47	60.02	-59.884	-140.75	128.67	-39.015	-801.44	1327.8	185.09	-841.52	1007.8	94.605	-736.43	1450.5	72.678	-793.06	1133.9	63.957	-819.41	998.67	16.335	-309.49	100.97	84.926	-340.14	78.454	4.6586	-365.69	34.168	67.153	-849.92	1096.1	-136.8	-683.81	1558.1	149.31
